<?xml version="1.0" encoding="UTF-8"?>
<svg id="Capa_1" data-name="Capa 1" xmlns="http://www.w3.org/2000/svg" viewBox="0 0 16 16">
  <defs>
    <style>
      .cls-1 {
        fill: #e9805f;
      }

      .cls-2 {
        fill: #fff;
      }

      .cls-3 {
        fill: #ef7753;
      }

      .cls-4 {
        fill: #ef7853;
      }

      .cls-5 {
        fill: #46a9a1;
      }

      .cls-6 {
        fill: #4e4d4d;
      }

      .cls-7 {
        fill: #ec7d5b;
      }

      .cls-8 {
        fill: #44a9a1;
      }

      .cls-9 {
        fill: #fdf2e6;
      }

      .cls-10 {
        fill: #ef7953;
      }

      .cls-11 {
        fill: #44a9a0;
      }
    </style>
  </defs>
  <path class="cls-8" d="M5.86,4.8c.22.16.64.13.72-.2l.08-.02-.08-.02v-1.41l.08-.03s.01-.06.04-.06c.88-.02,1.81,0,2.69.02.05.06.05.1-.04.12l-.03.07c-.63.36-1.02.94-1.34,1.49l-.13.09c-.05.1-.46.44-.46.63l-2.07,4.65h7.77c-1.13,1.17-3,1.86-4.88,1.95-1.46.07-3.46-.39-4.17.89-.51.92-.81,2-1.28,2.94l-.06.07H0L5.63,3.74c.07,0,.11.03.11.1-.04.28-.02.56.04.82.08.05.11.09.08.14Z"/>
  <path class="cls-10" d="M16,16h-2.7l-1.7-3.75h-1.19l1.11-.43c.75-.34,1.41-.78,1.99-1.29l2.49,5.46Z"/>
  <path class="cls-5" d="M13.74,5.96l-1.83,1.74h-.09s-1.99-1.25-1.99-1.25c-.05-.05-.05-.1,0-.15l1.76-1.74c-.11-.05-.5.03-.56-.04-.03-.03-.11-.72-.09-.78s.07-.08.14-.1c.25-.05,1.16-.14,1.41-.12.12,0,.78.19.78.25,0,.01-.1.12-.11.18-.1.46.42.83.99.68.07-.02.19-.1.22-.1.11-.01.47.43.5.52.13.35.01.86.12,1.23-.04.1-.94.11-1.12.13-.17-.04-.07-.32-.14-.44Z"/>
  <path class="cls-6" d="M10.33,3.71c.09.24.21.9-.05,1.08-.06.04-.14.09-.22.05-.16.13-.44-.06-.46-.22-.01-.81,0-1.63.02-2.44.17-2.11-3.4-2.16-3.26-.04.02.83.03,1.65.02,2.48-.02.18-.38.36-.53.19-.04-.04-.1-.05-.13-.09-.13-.15-.06-.65-.06-.84,0-.05-.04-.1-.04-.13,0-.64-.03-1.49.04-2.11.21-1.78,3.4-2.26,4.41-.66.41.65.27,1.98.26,2.74Z"/>
  <path class="cls-11" d="M14.43,8.23c-.07-.01-.08.02-.11.04-.67.4-1.26.92-1.93,1.31-.11.07-.22.14-.37.11-.14-.02-.8-.59-.83-.7-.03-.12.07-.19.16-.28.71-.41,1.33-.95,2.03-1.36.23-.14.52-.3.83-.23.11.02.48.33.53.42.05.09.01.23.07.27.08.05.54.07.69.12.19.06.17.14.14.29-.09.56-.4,1.17-.5,1.74-.02.06-.1.15-.17.17-.11.02-.98-.1-1.01-.25l.46-1.67Z"/>
  <path class="cls-4" d="M10.18,7.55c.13.08.18.2.16.37,0,.46,0,.92,0,1.37l-.06-.02-.03.06h-3.77l-.03-.04c-.1,0-.19,0-.27-.01-.18-.05-.06-.41.17-.45l.42-.08c.17-.03.58-.19.67-.18.11,0,.28.23.42.24.19-.1-.32-.28-.25-.35.08,0,.17-.1.24-.08s.27.23.39.2c.17-.03-.17-.27-.25-.27-.03-.04.15-.17.17-.17.07,0,.34.28.44.2.13-.1-.31-.25-.31-.34,0-.04.2-.26.24-.32s.19-.37.22-.39c.23-.12.47.34.52.34h.61s.15-.07.29-.06Z"/>
  <path class="cls-3" d="M9.34,3.21l.08.04-.03,1.02c-.05.37.18.77.68.56.1-.06.23-.09.26-.2.06-.21,0-.68,0-.92.19.32.38.66.48,1.01-.58.57-1.17,1.15-1.71,1.74-.07.01-.08-.01-.11-.05-.28-.34-.38-.96-.67-1.35-.12-.17-.23-.22-.49-.2.17-.37.43-.74.73-1.07.2-.21.44-.47.76-.58Z"/>
  <path class="cls-9" d="M6.39,9.65l.03-.06h3.64c.08,0,.13-.06.14-.12h-3.93s-.08-.03-.1-.06l.31-.03v-.09c-.09,0-.32.03-.37-.03-.02-.02-.06-.32-.04-.36.1-.17.5-.15.71-.18-.19.09-.38.07-.54.22-.06.06-.2.31-.06.31h4.1c.13,0,.02-.5.02-.57-.01-.3.05-.67,0-.95-.01-.08-.05-.13-.12-.19.11,0,.14.06.15.13.1.51-.02,1.06.04,1.56,0,.07.07.13.08.18,0,.06-.15.24-.23.27-1.09,0-2.19.05-3.27.02-.16,0-.39-.03-.55-.06Z"/>
  <path class="cls-1" d="M6.16,9.41h4.13c-.02.11-.09.23-.25.24h-3.66c-.06-.03-.27-.21-.23-.24Z"/>
  <path class="cls-7" d="M15.18,6.79c.12-.03.55.04.61.11.04.06,0,.29-.03.36-.07.2-.43.2-.63.12-.26-.11-.21-.53.05-.59Z"/>
  <path class="cls-2" d="M10.07,4.83s.04.02,0,.04c-.26.18-.63.01-.71-.22-.1-.3,0-1.09-.02-1.45,0-.03,0-.06,0-.09h-2.68v1.46s-.1.22-.14.25c-.16.15-.51.17-.67.02-.03-.03,0-.04,0-.04.18.07.43-.05.46-.19.07-.91-.09-1.9,0-2.81.16-1.72,3.2-1.75,3.37.03.09.9-.07,1.87,0,2.78.03.13.2.24.38.22Z"/>
</svg>