<?xml version="1.0" encoding="UTF-8"?>
<svg id="Capa_1" data-name="Capa 1" xmlns="http://www.w3.org/2000/svg" viewBox="0 0 1224.25 541.63">
  <defs>
    <style>
      .cls-1 {
        fill: #4c4d4c;
      }

      .cls-2 {
        fill: #4d4d4c;
      }

      .cls-3 {
        fill: #44a89f;
      }

      .cls-4 {
        fill: #4d4d4d;
      }

      .cls-5 {
        fill: #f17852;
      }

      .cls-6 {
        fill: #4c4c4c;
      }

      .cls-7 {
        fill: #fbfbfa;
      }

      .cls-8 {
        fill: #fdf2e6;
      }

      .cls-9 {
        fill: #46a9a1;
      }

      .cls-10 {
        fill: #f17652;
      }

      .cls-11 {
        fill: #43a8a0;
      }

      .cls-12 {
        fill: #e8805f;
      }

      .cls-13 {
        fill: #f17751;
      }

      .cls-14 {
        fill: #fefefe;
      }

      .cls-15 {
        fill: #fdfdfd;
      }

      .cls-16 {
        fill: #eb7c5a;
      }
    </style>
  </defs>
  <path class="cls-11" d="M153,162.63c5.71,5.36,16.81,4.31,18.81-6.91l2.19-.59-2-.67v-47.65l2-1.18c.08-.79.37-1.98.93-2,23.11-.67,47.27-.27,70.18.82,1.37,2.07,1.41,3.52-1.11,4.18l-.83,2.41c-16.38,12.08-26.75,31.9-34.88,50.53l-3.29,3.06c-1.18,3.28-12.13,14.79-12.02,21.48l-53.98,157.52h203c-29.52,39.49-78.38,62.98-127.51,65.99-38.09,2.33-90.31-13.33-108.97,30.03-13.35,31.02-21.05,67.83-33.45,99.55l-1.57,2.43H0L147,126.63c1.81-.26,2.78.88,2.9,3.42-.94,9.57-.62,18.88.96,27.93,2.06,1.56,2.77,3.12,2.13,4.66Z"/>
  <path class="cls-5" d="M418,541.63h-70.5l-44.5-127h-31l29.02-14.48c19.62-11.59,36.87-26.52,51.97-43.52l65.01,185Z"/>
  <path class="cls-9" d="M358.99,201.63l-47.7,58.87-2.31-.27-52.05-42.03c-1.38-1.59-1.25-3.48-.01-5.15l46.08-58.93c-2.91-1.59-13.01.88-14.56-1.43-.75-1.11-2.84-24.38-2.43-26.57s1.73-2.73,3.73-3.26c6.52-1.73,30.41-4.83,36.75-4.22,3.13.3,20.26,6.29,20.42,8.47.03.37-2.52,4.03-2.85,6.08-2.5,15.57,10.91,28.23,25.91,22.91,1.95-.69,4.95-3.22,5.71-3.34,2.79-.44,12.16,14.59,13.05,17.63,3.45,11.7.38,29.26,3.2,41.6-1.13,3.43-24.68,3.57-29.21,4.48-4.48-1.27-1.94-10.95-3.73-14.84Z"/>
  <path class="cls-6" d="M535.16,309.8c-3.5,6.89-6.69,20.95-13.21,25.28-10.98,7.29-23.54-1.45-19.26-14.27,14.25-28.2,23.59-65.79,39.51-92.48,5.46-9.14,13.53-14.81,24.61-12.01,9.09,2.29,13.12,9.28,17.04,16.96,14.58,28.5,25.35,61.48,38.17,90.88,1.29,10.99-10.67,16.83-19.72,11.68-8.1-4.61-11.21-24.76-14.96-26.04h-52.18Z"/>
  <path class="cls-4" d="M270,125.63c2.28,8.29,5.38,30.37-1.21,36.45-1.63,1.5-3.74,3.03-5.79,1.55-4.2,4.55-11.45-2.14-11.92-7.29-.27-27.56-.1-55.13.52-82.7,4.55-71.51-88.79-72.97-85.21-1.23.6,27.97.78,55.93.53,83.88-.49,6.02-9.93,12.28-13.92,6.34-1.03-1.24-2.69-1.85-3.49-3.01-3.48-5.13-1.52-22.12-1.52-28.51,0-1.65-1-3.3-1-4.48.1-21.74-.86-50.5,1.02-71.48,5.36-60.14,88.73-76.35,115.16-22.19,10.77,22.07,7.03,67.09,6.82,92.68Z"/>
  <path class="cls-4" d="M874.78,215.91c12.76-1.53,55.29.61,46.46,22.46-4.41,10.92-18.98,2.19-26.04.56-9.43-2.18-29.68-1.54-29.14,12.11.47,11.89,28.7,14.92,38.2,18.83,18.02,7.42,26.32,21.51,21.44,40.97-7.4,29.51-50.8,31.51-73.97,21.56-9.04-3.88-18.24-11.18-11.2-21.73,6.14-9.2,20.16.62,28.46,2.48,10.21,2.29,34.16,3.83,30.78-12.78-2.11-10.35-23.96-12.17-32.73-15.28-43.05-15.23-32-64.43,7.74-69.18Z"/>
  <path class="cls-3" d="M377,278.64c-1.73-.45-2,.71-3,1.49-17.58,13.59-32.83,31.05-50.52,44.48-2.99,2.27-5.77,4.68-9.74,3.85-3.64-.76-20.79-19.9-21.56-23.56-.86-4.09,1.84-6.5,4.28-9.31,18.48-13.85,34.84-32.03,53.07-45.93,6.08-4.63,13.5-10.21,21.76-7.81,2.9.84,12.56,11.33,13.79,14.2,1.31,3.06.3,7.88,1.9,9.1,2.2,1.67,14.01,2.26,18.02,3.98,5,2.15,4.34,4.86,3.74,9.75-2.3,18.95-10.56,39.72-13,58.99-.47,1.91-2.57,5.07-4.47,5.6-2.8.79-25.64-3.34-26.27-8.38l12-56.45Z"/>
  <path class="cls-2" d="M1162,361.13c-2.23,11.13-22.41,11.72-24.76-1.24l-.26-94.79c2.22-14.98,23.18-15,24.52.53,15.4-20.34,45.74-13.12,57.02,7.97,20.84,38.99-19.03,85.42-56.52,54.02-1.35,9.72,1.82,24.44,0,33.5Z"/>
  <path class="cls-4" d="M962.66,217.98c2.85,2.67,4.28,10.33,4.36,14.19.08,3.64-1.12,6.56-1.06,9.91.13,7.25.99,14.32,1.06,21.54,1.47.03,1.27-1.79,2.61-2.87,14.62-11.85,39.47-8.9,47.58,9.19,4.86,10.84,5.22,43.84,3.81,56.19-1.18,10.29-12.86,15.16-20.98,8.98-7.52-5.73-2.52-36.34-4.26-46.74-3.06-18.26-26.98-13.86-28.77,2.76-1.23,11.43.4,25.17-.98,37.02s-23.45,14.96-25.06-3.99c-2.62-30.95,1.95-65.61.12-96.95.35-10.86,13.91-16.42,21.57-9.24Z"/>
  <path class="cls-4" d="M1074.79,253.93c58.66-5.06,64.21,77.92,10.59,83.58-62.5,6.6-68.31-78.6-10.59-83.58Z"/>
  <path class="cls-6" d="M720,302.63c2.73,11.8,14.05,16.17,25.39,14.89,7.5-.85,22.73-11.3,25.42,2.86,2.95,15.54-28.1,18.13-38.19,17.12-53.54-5.35-48.46-83.56,3.88-83.88,20.95-.13,41.15,18.58,37.44,40.44-.64,3.74-6.07,8.56-9.44,8.56h-44.5Z"/>
  <path class="cls-13" d="M266,255.63c3.27,2.77,4.64,6.93,4.1,12.48.06,15.59.01,31.02-.15,46.29l-1.45-.77-.69,2h-98.5l-.68-1.52c-2.61.28-4.98.12-7.13-.48-4.74-1.83-1.51-13.89,4.57-15.15l10.93-2.85c4.49-.87,15.03-6.27,17.46-6.03,2.86.28,7.19,7.63,11.02,8.04,4.96-3.26-8.28-9.38-6.47-11.99,2.16.05,4.47-3.25,6.35-2.88s7.05,7.65,10.13,6.86c4.52-1.17-4.37-9.16-6.48-9.02-.86-1.21,3.93-5.8,4.48-5.8,1.95-.01,8.89,9.43,11.51,6.82,3.4-3.4-8.04-8.5-8.01-11.48.01-1.48,5.13-8.65,6.19-10.83s4.94-12.66,5.77-13.24c5.94-4.15,12.28,11.56,13.55,11.56h16c1.14,0,4.03-2.42,7.5-2Z"/>
  <path class="cls-10" d="M244,108.63l2.03,1.46-.78,34.43c-1.35,12.56,4.76,26.09,17.75,19.11,2.63-2.16,5.94-2.9,6.79-6.71,1.57-7.06.15-23.06.21-31.29,4.94,10.94,9.96,22.29,12.59,34.04-15.07,19.46-30.47,39-44.61,58.96-1.84.39-1.96-.49-2.75-1.73-7.34-11.55-9.99-32.48-17.41-45.59-3.26-5.76-5.9-7.46-12.82-6.68,4.56-12.66,11.22-25.15,19.19-36.31,5.19-7.27,11.54-15.97,19.81-19.69Z"/>
  <path class="cls-1" d="M654.79,214.84c5.95-.47,12.19,3.11,13.15,9.36l1.75,84.25c3.49,13.52,17.09,3.13,19.07,13.93,2.73,14.87-10.6,16.49-22.15,15.15-17.85-2.07-22.65-16.55-23.65-32.35-1.29-20.25-1.93-56.27.05-76.03.75-7.48,3.56-13.65,11.78-14.3Z"/>
  <path class="cls-8" d="M167,326.63l.69-2,95.01.05c1.99-.27,3.46-2.07,3.62-4.04h-102.66c-1.3.05-2.22-.9-2.67-2.01l8.01-1v-2.99c-2.31-.34-8.32.9-9.57-.94-.4-.59-1.47-10.93-.96-12.04,2.7-5.88,13.17-4.98,18.53-6.03-5.08,3.04-10,2.41-13.99,7.51-1.64,2.1-5.21,10.49-1.51,10.49h107c3.43,0,.53-16.87.46-19.46-.26-10,1.19-22.56.07-32.06-.34-2.85-1.41-4.31-3.03-6.48,2.75.33,3.53,1.93,3.93,4.57,2.62,17.15-.42,35.77,1.03,52.96.21,2.46,1.95,4.31,1.96,5.96.02,2.16-4,8.17-5.95,8.99-28.37-.02-57.17,1.81-85.52.56-4.23-.19-10.31-1.06-14.46-2.04Z"/>
  <path class="cls-12" d="M161,318.63h108c-.4,3.56-2.3,7.89-6.45,8.05l-95.55-.05c-1.6-.83-7.1-6.97-6-8Z"/>
  <path class="cls-4" d="M794.76,279.9c5.35-.79,8.84.86,13.76.81,7.08-.07,19.1-3.95,21.26,6.66,3.14,15.42-13.88,12.05-23.31,12.23-2.66.05-5.12,1.12-7.95,1.13-17.04.05-18.05-18.7-3.74-20.82Z"/>
  <path class="cls-16" d="M396.7,229.84c3.02-.9,14.32,1.3,15.81,3.77,1.14,1.88-.06,9.88-.76,12.27-1.95,6.67-11.18,6.86-16.45,3.95-6.73-3.7-5.48-17.94,1.41-19.99Z"/>
  <path class="cls-14" d="M263,163.63c-.06.05,1.03.59.08,1.43-6.86,6.04-16.55.39-18.61-7.4-2.67-10.09-.11-36.74-.47-49.03-.03-1,.04-2.01,0-3h-70.01v49.5c0,1.05-2.65,7.34-3.54,8.46-4.15,5.19-13.21,5.78-17.57.51-.75-.9.16-1.41.11-1.47,4.58,2.25,11.35-1.62,11.94-6.56,1.84-30.96-2.24-64.31.02-94.98,4.29-58.26,83.64-59.14,88.08,1,2.24,30.34-1.8,63.35.02,93.98.71,4.47,5.29,8.12,9.94,7.56Z"/>
  <path class="cls-15" d="M579,287.63h-33.5c-.4,0-1.76,2.57-1.48-.48l17.48-44.53,17.5,45.01Z"/>
  <path class="cls-15" d="M1177.78,275.87c25.75-2.82,27.16,38.07,3.7,39.79-23.46,1.72-26.56-37.29-3.7-39.79Z"/>
  <path class="cls-15" d="M1074.74,275.88c29.24-4.98,29.53,43.48.85,39.66-19.4-2.58-20.19-36.36-.85-39.66Z"/>
  <path class="cls-7" d="M752,287.63h-32c2.91-19.02,29.75-20.07,32,0Z"/>
</svg>